<svg width="42" height="42" viewBox="0 0 42 42" fill="none" xmlns="http://www.w3.org/2000/svg">
<path d="M36 0C39.3094 0 42 2.69063 42 6V36C42 39.3094 39.3094 42 36 42H6C2.69063 42 0 39.3094 0 36V6C0 2.69063 2.69063 0 6 0H36ZM16.2844 6C13.1906 6 10.6781 8.5125 10.6781 11.6063C10.6781 13.575 11.6906 15.3 13.2281 16.3031C11.6906 17.3062 10.6781 19.0312 10.6781 21C10.6781 22.9688 11.6906 24.7031 13.2281 25.6969C11.6906 26.7 10.6781 28.425 10.6781 30.3938C10.6781 33.4969 13.2188 36 16.3125 36C19.425 36 21.9938 33.4781 21.9938 30.3469V25.125C22.9875 26.0438 24.3187 26.6062 25.7812 26.6062H25.8844C28.9781 26.6062 31.4906 24.0938 31.4906 21C31.4906 19.0312 30.4781 17.2969 28.9406 16.3031C30.4781 15.3 31.4906 13.575 31.4906 11.6063C31.4906 8.5125 28.9781 6 25.8844 6H16.2844ZM20.1844 26.6062V30.3469C20.1844 32.4656 18.4406 34.1906 16.3125 34.1906C14.2125 34.1906 12.4969 32.4844 12.4969 30.3938C12.4969 28.3031 14.1938 26.6062 16.275 26.6062H20.1844ZM20.1844 17.2031V24.7875H16.275C14.1844 24.7781 12.4969 23.0812 12.4969 20.9906C12.4969 18.9 14.1937 17.1937 16.2937 17.1937H20.1937L20.1844 17.2031ZM25.8844 17.2031C27.975 17.2031 29.6813 18.9 29.6813 21C29.6813 23.1 27.9844 24.7969 25.8844 24.7969H25.7812C23.6906 24.7969 21.9938 23.1 21.9938 21C21.9938 18.9 23.6906 17.2031 25.7812 17.2031H25.8844ZM20.1844 15.3938H16.2844C14.1938 15.3938 12.4875 13.6969 12.4875 11.6063C12.4875 9.51563 14.1844 7.80938 16.2844 7.80938H20.1844V15.3938ZM25.8844 7.80938C27.975 7.80938 29.6813 9.50625 29.6813 11.6063C29.6813 13.7063 27.9844 15.3938 25.8844 15.3938H21.9938V7.80938H25.8844Z" fill="white"/>
</svg>
